<?xml version="1.0" encoding="utf-8"?>
<!-- Uploaded to: SVG Repo, www.svgrepo.com, Generator: SVG Repo Mixer Tools -->
<svg width="800px" height="800px" viewBox="0 -199 1422 1422" class="icon"  version="1.1" xmlns="http://www.w3.org/2000/svg"><path d="M99.266 310.203c0-199.688 133.359-205.078 133.359-205.078h830.625c2.063-0.078 4.489-0.121 6.923-0.121 81.761 0 151.923 49.662 181.965 120.467l0.487 477.309c0 225.703-157.266 210.938-157.266 210.938h-790.782c-164.063 0-187.501-90.703-187.501-90.703z" fill="#C0D36F" /><path d="M121.297 770.281v-512.812s247.5 39.375 247.5 260.625-247.5 252.188-247.5 252.188zM1236.219 257.469v512.812s-247.5-39.375-247.5-260.625 247.5-252.188 247.5-252.188z" fill="#FFFFFF" /><path d="M1119.267 90.125h-886.641c-78.7 0-142.5 63.8-142.5 142.5v558.516c0.133 78.647 63.853 142.367 142.488 142.5h886.654c78.646-0.133 142.367-63.853 142.5-142.488v-558.528c-0.134-78.646-63.853-142.367-142.488-142.5zM699.266 397.156c53.93 11.239 93.867 58.377 93.867 114.844s-39.938 103.605-93.106 114.711l-0.761-229.554zM652.391 626.844c-53.93-11.239-93.867-58.377-93.867-114.844s39.938-103.605 93.106-114.711l0.761 229.554zM652.391 349.812c-79.347 12.438-139.329 80.307-139.329 162.188s59.982 149.75 138.403 162.068l0.927 212.932h-419.766c-52.759-0.133-95.492-42.866-95.625-95.613v-558.763c0.133-52.759 42.867-95.492 95.613-95.625h420.011v212.813zM1214.891 232.625v558.516c-0.133 52.759-42.867 95.492-95.613 95.625h-419.778v-212.813c79.347-12.438 139.329-80.307 139.329-162.188 0-81.879-59.982-149.75-138.403-162.068l-0.927-212.932h419.999c50.632 0.158 91.991 39.641 95.142 89.5l0.013 6.125z" fill="#25274B" /><path d="M360.125 628.016c16.004-34.045 25.345-73.94 25.345-116.016s-9.341-81.97-26.063-117.724c-44.791-95.869-142.034-162.293-254.799-162.355l0.048 46.875c86.229 0.091 161.545 46.736 202.176 116.149l-207.097 1.038v46.875h228.516c6.848 21.018 10.795 45.204 10.795 70.313s-3.949 49.295-11.257 71.972l-228.054-1.658v46.875h207.188c-41.226 70.461-116.486 117.067-202.641 117.188l0.141 46.875c112.701-0.181 209.84-66.623 254.559-162.442l0.675-3.026zM1024.109 441.453h228.516v-46.875h-207.422c41.226-70.461 116.486-117.068 202.641-117.188l-0.141-46.875c-112.701 0.181-209.84 66.622-254.559 162.442l-0.675 3.026c-16.004 34.045-25.345 73.94-25.345 116.016s9.341 81.97 26.063 117.723c44.791 95.869 142.034 162.293 254.799 162.355l-0.048-46.875c-86.229-0.091-161.545-46.736-202.176-116.149l207.097-1.038v-46.875h-228.516c-6.829-20.991-10.765-45.146-10.765-70.22 0-24.798 3.851-48.695 10.988-71.128z" fill="#102345" /></svg>